<svg version="1.1" id="Warstwa_1" xmlns="http://www.w3.org/2000/svg" x="0" y="0" viewBox="0 0 992 354" xml:space="preserve"><style>.st0{fill:#333}.st1{fill:none}.st2{font-family:&apos;MicrosoftNewTaiLue&apos;}</style><path class="st0" d="M407.28 58.92H172.76v68.75H88.74V10.33c0-4.05-3.31-7.33-7.39-7.33H52.74c-4.08 0-7.39 3.28-7.39 7.33V206.5c0 4.05 3.31 7.33 7.39 7.33h28.62c4.08 0 7.39-3.28 7.39-7.33v-20.17H399.9v20.17c0 4.05 3.31 7.33 7.39 7.33h28.62c4.08 0 7.39-3.28 7.39-7.33V94.67c-.01-19.75-16.13-35.75-36.02-35.75z"/><ellipse class="st0" cx="130.29" cy="88.25" rx="35.08" ry="34.83"/><path class="st1" d="M453.68 62.89H936v150.94H453.68z"/><text transform="matrix(1.0072 0 0 1 453.678 178.245)" class="st0 st2" font-size="155.833">KRZYŚ</text><path class="st1" d="M25.47 234.84H961V338H25.47z"/><text transform="matrix(1.0072 0 0 1 25.475 323.67)" class="st0 st2" font-size="120">DOMKI I POKOJE</text></svg>