<?xml version="1.0" encoding="utf-8"?>
<!-- Generator: Adobe Illustrator 24.0.1, SVG Export Plug-In . SVG Version: 6.00 Build 0)  -->
<svg version="1.1" id="Warstwa_1" xmlns="http://www.w3.org/2000/svg" xmlns:xlink="http://www.w3.org/1999/xlink" x="0px" y="0px"
	 viewBox="0 0 992 354" style="enable-background:new 0 0 992 354;" xml:space="preserve">
<style type="text/css">
	.st0{fill:#333333;}
	.st1{fill:none;}
	.st2{font-family:'MicrosoftNewTaiLue';}
	.st3{font-size:155.8333px;}
	.st4{font-size:120px;}
</style>
<g>
	<g>
		<path class="st0" d="M407.28,58.92H172.76v68.75H88.74V10.33c0-4.05-3.31-7.33-7.39-7.33H52.74c-4.08,0-7.39,3.28-7.39,7.33V206.5
			c0,4.05,3.31,7.33,7.39,7.33h28.62c4.08,0,7.39-3.28,7.39-7.33v-20.17h311.15v20.17c0,4.05,3.31,7.33,7.39,7.33h28.62
			c4.08,0,7.39-3.28,7.39-7.33V94.67C443.29,74.92,427.17,58.92,407.28,58.92z"/>
	</g>
	<g>
		<ellipse class="st0" cx="130.29" cy="88.25" rx="35.08" ry="34.83"/>
	</g>
</g>
<rect x="453.68" y="62.89" class="st1" width="482.32" height="150.94"/>
<text transform="matrix(1.0072 0 0 1 453.6782 178.2446)" class="st0 st2 st3">KRZYŚ</text>
<rect x="25.47" y="234.84" class="st1" width="935.53" height="103.16"/>
<text transform="matrix(1.0072 0 0 1 25.4746 323.6709)" class="st0 st2 st4">DOMKI I POKOJE</text>
</svg>
